REM MD5 7d25baca22bcc1e3dda3734998f25acf
FILE "DemoDemo PlayStation Vol. 13 (Japan).bin" BINARY
  TRACK 01 MODE2/2352
    INDEX 01 00:00:00
  TRACK 02 AUDIO
    INDEX 00 42:08:34
    INDEX 01 43:08:00
  TRACK 03 AUDIO
    INDEX 00 43:40:46
    INDEX 01 43:42:46
REM LEADOUT 46:29:05
